<svg width="1440" height="1080" viewBox="0 0 1440 1080" fill="none" xmlns="http://www.w3.org/2000/svg">
<mask id="mask0_406_4087" style="mask-type:alpha" maskUnits="userSpaceOnUse" x="180" y="0" width="1080" height="1080">
<rect width="1080" height="1080" transform="translate(180)" fill="url(#paint0_radial_406_4087)"/>
</mask>
<g mask="url(#mask0_406_4087)">
<g clip-path="url(#clip0_406_4087)">
<path d="M216 72V72.75H216.75V72H216ZM215.25 0V72H216.75V0H215.25ZM216 71.25H144V72.75H216V71.25Z" fill="#D0D5DD" mask="url(#path-3-inside-1_406_4087)"/>
<path d="M288 72V72.75H288.75V72H288ZM287.25 0V72H288.75V0H287.25ZM288 71.25H216V72.75H288V71.25Z" fill="#D0D5DD" mask="url(#path-5-inside-2_406_4087)"/>
<path d="M360 72V72.75H360.75V72H360ZM359.25 0V72H360.75V0H359.25ZM360 71.25H288V72.75H360V71.25Z" fill="#D0D5DD" mask="url(#path-7-inside-3_406_4087)"/>
<path d="M432 72V72.75H432.75V72H432ZM431.25 0V72H432.75V0H431.25ZM432 71.25H360V72.75H432V71.25Z" fill="#D0D5DD" mask="url(#path-9-inside-4_406_4087)"/>
<path d="M504 72V72.75H504.75V72H504ZM503.25 0V72H504.75V0H503.25ZM504 71.25H432V72.75H504V71.25Z" fill="#D0D5DD" mask="url(#path-11-inside-5_406_4087)"/>
<path d="M576 72V72.75H576.75V72H576ZM575.25 0V72H576.75V0H575.25ZM576 71.25H504V72.75H576V71.25Z" fill="#D0D5DD" mask="url(#path-13-inside-6_406_4087)"/>
<path d="M648 72V72.75H648.75V72H648ZM647.25 0V72H648.75V0H647.25ZM648 71.25H576V72.75H648V71.25Z" fill="#D0D5DD" mask="url(#path-15-inside-7_406_4087)"/>
<path d="M720 72V72.75H720.75V72H720ZM719.25 0V72H720.75V0H719.25ZM720 71.25H648V72.75H720V71.25Z" fill="#D0D5DD" mask="url(#path-17-inside-8_406_4087)"/>
<path d="M792 72V72.75H792.75V72H792ZM791.25 0V72H792.75V0H791.25ZM792 71.25H720V72.75H792V71.25Z" fill="#D0D5DD" mask="url(#path-19-inside-9_406_4087)"/>
<path d="M864 72V72.75H864.75V72H864ZM863.25 0V72H864.75V0H863.25ZM864 71.25H792V72.75H864V71.25Z" fill="#D0D5DD" mask="url(#path-21-inside-10_406_4087)"/>
<path d="M936 72V72.75H936.75V72H936ZM935.25 0V72H936.75V0H935.25ZM936 71.25H864V72.75H936V71.25Z" fill="#D0D5DD" mask="url(#path-23-inside-11_406_4087)"/>
<path d="M1008 72V72.75H1008.75V72H1008ZM1007.25 0V72H1008.75V0H1007.25ZM1008 71.25H936V72.75H1008V71.25Z" fill="#D0D5DD" mask="url(#path-25-inside-12_406_4087)"/>
<path d="M1080 72V72.75H1080.75V72H1080ZM1079.25 0V72H1080.75V0H1079.25ZM1080 71.25H1008V72.75H1080V71.25Z" fill="#D0D5DD" mask="url(#path-27-inside-13_406_4087)"/>
<path d="M1152 72V72.75H1152.75V72H1152ZM1151.25 0V72H1152.75V0H1151.25ZM1152 71.25H1080V72.75H1152V71.25Z" fill="#D0D5DD" mask="url(#path-29-inside-14_406_4087)"/>
<path d="M1224 72V72.75H1224.75V72H1224ZM1223.25 0V72H1224.75V0H1223.25ZM1224 71.25H1152V72.75H1224V71.25Z" fill="#D0D5DD" mask="url(#path-31-inside-15_406_4087)"/>
<path d="M1296 72V72.75H1296.75V72H1296ZM1295.25 0V72H1296.75V0H1295.25ZM1296 71.25H1224V72.75H1296V71.25Z" fill="#D0D5DD" mask="url(#path-33-inside-16_406_4087)"/>
<path d="M216 144V144.75H216.75V144H216ZM215.25 72V144H216.75V72H215.25ZM216 143.25H144V144.75H216V143.25Z" fill="#D0D5DD" mask="url(#path-35-inside-17_406_4087)"/>
<path d="M288 144V144.75H288.75V144H288ZM287.25 72V144H288.75V72H287.25ZM288 143.25H216V144.75H288V143.25Z" fill="#D0D5DD" mask="url(#path-37-inside-18_406_4087)"/>
<path d="M360 144V144.75H360.75V144H360ZM359.25 72V144H360.75V72H359.25ZM360 143.25H288V144.75H360V143.25Z" fill="#D0D5DD" mask="url(#path-39-inside-19_406_4087)"/>
<mask id="path-41-inside-20_406_4087" fill="white">
<path d="M360 72H432V144H360V72Z"/>
</mask>
<path d="M360 72H432V144H360V72Z" fill="#F2F4F7"/>
<path d="M432 144V144.75H432.75V144H432ZM431.25 72V144H432.75V72H431.25ZM432 143.25H360V144.75H432V143.25Z" fill="#D0D5DD" mask="url(#path-41-inside-20_406_4087)"/>
<path d="M504 144V144.75H504.75V144H504ZM503.25 72V144H504.75V72H503.25ZM504 143.25H432V144.75H504V143.25Z" fill="#D0D5DD" mask="url(#path-43-inside-21_406_4087)"/>
<path d="M576 144V144.75H576.75V144H576ZM575.25 72V144H576.75V72H575.25ZM576 143.25H504V144.75H576V143.25Z" fill="#D0D5DD" mask="url(#path-45-inside-22_406_4087)"/>
<path d="M648 144V144.75H648.75V144H648ZM647.25 72V144H648.75V72H647.25ZM648 143.25H576V144.75H648V143.25Z" fill="#D0D5DD" mask="url(#path-47-inside-23_406_4087)"/>
<path d="M720 144V144.75H720.75V144H720ZM719.25 72V144H720.75V72H719.25ZM720 143.25H648V144.75H720V143.25Z" fill="#D0D5DD" mask="url(#path-49-inside-24_406_4087)"/>
<path d="M792 144V144.75H792.75V144H792ZM791.25 72V144H792.75V72H791.25ZM792 143.25H720V144.75H792V143.25Z" fill="#D0D5DD" mask="url(#path-51-inside-25_406_4087)"/>
<path d="M864 144V144.75H864.75V144H864ZM863.25 72V144H864.75V72H863.25ZM864 143.25H792V144.75H864V143.25Z" fill="#D0D5DD" mask="url(#path-53-inside-26_406_4087)"/>
<path d="M936 144V144.75H936.75V144H936ZM935.25 72V144H936.75V72H935.25ZM936 143.25H864V144.75H936V143.25Z" fill="#D0D5DD" mask="url(#path-55-inside-27_406_4087)"/>
<path d="M1008 144V144.75H1008.75V144H1008ZM1007.25 72V144H1008.75V72H1007.25ZM1008 143.25H936V144.75H1008V143.25Z" fill="#D0D5DD" mask="url(#path-57-inside-28_406_4087)"/>
<mask id="path-59-inside-29_406_4087" fill="white">
<path d="M1008 72H1080V144H1008V72Z"/>
</mask>
<path d="M1008 72H1080V144H1008V72Z" fill="#F2F4F7"/>
<path d="M1080 144V144.75H1080.75V144H1080ZM1079.25 72V144H1080.75V72H1079.25ZM1080 143.25H1008V144.75H1080V143.25Z" fill="#D0D5DD" mask="url(#path-59-inside-29_406_4087)"/>
<path d="M1152 144V144.75H1152.75V144H1152ZM1151.25 72V144H1152.75V72H1151.25ZM1152 143.25H1080V144.75H1152V143.25Z" fill="#D0D5DD" mask="url(#path-61-inside-30_406_4087)"/>
<path d="M1224 144V144.75H1224.75V144H1224ZM1223.25 72V144H1224.75V72H1223.25ZM1224 143.25H1152V144.75H1224V143.25Z" fill="#D0D5DD" mask="url(#path-63-inside-31_406_4087)"/>
<path d="M1296 144V144.75H1296.75V144H1296ZM1295.25 72V144H1296.75V72H1295.25ZM1296 143.25H1224V144.75H1296V143.25Z" fill="#D0D5DD" mask="url(#path-65-inside-32_406_4087)"/>
<path d="M216 216V216.75H216.75V216H216ZM215.25 144V216H216.75V144H215.25ZM216 215.25H144V216.75H216V215.25Z" fill="#D0D5DD" mask="url(#path-67-inside-33_406_4087)"/>
<path d="M288 216V216.75H288.75V216H288ZM287.25 144V216H288.75V144H287.25ZM288 215.25H216V216.75H288V215.25Z" fill="#D0D5DD" mask="url(#path-69-inside-34_406_4087)"/>
<path d="M360 216V216.75H360.75V216H360ZM359.25 144V216H360.75V144H359.25ZM360 215.25H288V216.75H360V215.25Z" fill="#D0D5DD" mask="url(#path-71-inside-35_406_4087)"/>
<path d="M432 216V216.75H432.75V216H432ZM431.25 144V216H432.75V144H431.25ZM432 215.25H360V216.75H432V215.25Z" fill="#D0D5DD" mask="url(#path-73-inside-36_406_4087)"/>
<path d="M504 216V216.75H504.75V216H504ZM503.25 144V216H504.75V144H503.25ZM504 215.25H432V216.75H504V215.25Z" fill="#D0D5DD" mask="url(#path-75-inside-37_406_4087)"/>
<mask id="path-77-inside-38_406_4087" fill="white">
<path d="M504 144H576V216H504V144Z"/>
</mask>
<path d="M504 144H576V216H504V144Z" fill="#F2F4F7"/>
<path d="M576 216V216.75H576.75V216H576ZM575.25 144V216H576.75V144H575.25ZM576 215.25H504V216.75H576V215.25Z" fill="#D0D5DD" mask="url(#path-77-inside-38_406_4087)"/>
<path d="M648 216V216.75H648.75V216H648ZM647.25 144V216H648.75V144H647.25ZM648 215.25H576V216.75H648V215.25Z" fill="#D0D5DD" mask="url(#path-79-inside-39_406_4087)"/>
<path d="M720 216V216.75H720.75V216H720ZM719.25 144V216H720.75V144H719.25ZM720 215.25H648V216.75H720V215.25Z" fill="#D0D5DD" mask="url(#path-81-inside-40_406_4087)"/>
<path d="M792 216V216.75H792.75V216H792ZM791.25 144V216H792.75V144H791.25ZM792 215.25H720V216.75H792V215.25Z" fill="#D0D5DD" mask="url(#path-83-inside-41_406_4087)"/>
<mask id="path-85-inside-42_406_4087" fill="white">
<path d="M792 144H864V216H792V144Z"/>
</mask>
<path d="M792 144H864V216H792V144Z" fill="#ECFDF5"/>
<path d="M864 216V216.75H864.75V216H864ZM863.25 144V216H864.75V144H863.25ZM864 215.25H792V216.75H864V215.25Z" fill="#D0D5DD" mask="url(#path-85-inside-42_406_4087)"/>
<path d="M936 216V216.75H936.75V216H936ZM935.25 144V216H936.75V144H935.25ZM936 215.25H864V216.75H936V215.25Z" fill="#D0D5DD" mask="url(#path-87-inside-43_406_4087)"/>
<path d="M1008 216V216.75H1008.75V216H1008ZM1007.25 144V216H1008.75V144H1007.25ZM1008 215.25H936V216.75H1008V215.25Z" fill="#D0D5DD" mask="url(#path-89-inside-44_406_4087)"/>
<path d="M1080 216V216.75H1080.75V216H1080ZM1079.25 144V216H1080.75V144H1079.25ZM1080 215.25H1008V216.75H1080V215.25Z" fill="#D0D5DD" mask="url(#path-91-inside-45_406_4087)"/>
<path d="M1152 216V216.75H1152.75V216H1152ZM1151.25 144V216H1152.75V144H1151.25ZM1152 215.25H1080V216.75H1152V215.25Z" fill="#D0D5DD" mask="url(#path-93-inside-46_406_4087)"/>
<path d="M1224 216V216.75H1224.75V216H1224ZM1223.25 144V216H1224.75V144H1223.25ZM1224 215.25H1152V216.75H1224V215.25Z" fill="#D0D5DD" mask="url(#path-95-inside-47_406_4087)"/>
<path d="M1296 216V216.75H1296.75V216H1296ZM1295.25 144V216H1296.75V144H1295.25ZM1296 215.25H1224V216.75H1296V215.25Z" fill="#D0D5DD" mask="url(#path-97-inside-48_406_4087)"/>
<mask id="path-99-inside-49_406_4087" fill="white">
<path d="M144 216H216V288H144V216Z"/>
</mask>
<path d="M144 216H216V288H144V216Z" fill="#F2F4F7"/>
<path d="M216 288V288.75H216.75V288H216ZM215.25 216V288H216.75V216H215.25ZM216 287.25H144V288.75H216V287.25Z" fill="#D0D5DD" mask="url(#path-99-inside-49_406_4087)"/>
<path d="M288 288V288.75H288.75V288H288ZM287.25 216V288H288.75V216H287.25ZM288 287.25H216V288.75H288V287.25Z" fill="#D0D5DD" mask="url(#path-101-inside-50_406_4087)"/>
<path d="M360 288V288.75H360.75V288H360ZM359.25 216V288H360.75V216H359.25ZM360 287.25H288V288.75H360V287.25Z" fill="#D0D5DD" mask="url(#path-103-inside-51_406_4087)"/>
<path d="M432 288V288.75H432.75V288H432ZM431.25 216V288H432.75V216H431.25ZM432 287.25H360V288.75H432V287.25Z" fill="#D0D5DD" mask="url(#path-105-inside-52_406_4087)"/>
<path d="M504 288V288.75H504.75V288H504ZM503.25 216V288H504.75V216H503.25ZM504 287.25H432V288.75H504V287.25Z" fill="#D0D5DD" mask="url(#path-107-inside-53_406_4087)"/>
<path d="M576 288V288.75H576.75V288H576ZM575.25 216V288H576.75V216H575.25ZM576 287.25H504V288.75H576V287.25Z" fill="#D0D5DD" mask="url(#path-109-inside-54_406_4087)"/>
<path d="M648 288V288.75H648.75V288H648ZM647.25 216V288H648.75V216H647.25ZM648 287.25H576V288.75H648V287.25Z" fill="#D0D5DD" mask="url(#path-111-inside-55_406_4087)"/>
<path d="M720 288V288.75H720.75V288H720ZM719.25 216V288H720.75V216H719.25ZM720 287.25H648V288.75H720V287.25Z" fill="#D0D5DD" mask="url(#path-113-inside-56_406_4087)"/>
<path d="M792 288V288.75H792.75V288H792ZM791.25 216V288H792.75V216H791.25ZM792 287.25H720V288.75H792V287.25Z" fill="#D0D5DD" mask="url(#path-115-inside-57_406_4087)"/>
<path d="M864 288V288.75H864.75V288H864ZM863.25 216V288H864.75V216H863.25ZM864 287.25H792V288.75H864V287.25Z" fill="#D0D5DD" mask="url(#path-117-inside-58_406_4087)"/>
<path d="M936 288V288.75H936.75V288H936ZM935.25 216V288H936.75V216H935.25ZM936 287.25H864V288.75H936V287.25Z" fill="#D0D5DD" mask="url(#path-119-inside-59_406_4087)"/>
<path d="M1008 288V288.75H1008.75V288H1008ZM1007.25 216V288H1008.75V216H1007.25ZM1008 287.25H936V288.75H1008V287.25Z" fill="#D0D5DD" mask="url(#path-121-inside-60_406_4087)"/>
<mask id="path-123-inside-61_406_4087" fill="white">
<path d="M1008 216H1080V288H1008V216Z"/>
</mask>
<path d="M1008 216H1080V288H1008V216Z" fill="#F2F4F7"/>
<path d="M1080 288V288.75H1080.75V288H1080ZM1079.25 216V288H1080.75V216H1079.25ZM1080 287.25H1008V288.75H1080V287.25Z" fill="#D0D5DD" mask="url(#path-123-inside-61_406_4087)"/>
<path d="M1152 288V288.75H1152.75V288H1152ZM1151.25 216V288H1152.75V216H1151.25ZM1152 287.25H1080V288.75H1152V287.25Z" fill="#D0D5DD" mask="url(#path-125-inside-62_406_4087)"/>
<path d="M1224 288V288.75H1224.75V288H1224ZM1223.25 216V288H1224.75V216H1223.25ZM1224 287.25H1152V288.75H1224V287.25Z" fill="#D0D5DD" mask="url(#path-127-inside-63_406_4087)"/>
<path d="M1296 288V288.75H1296.75V288H1296ZM1295.25 216V288H1296.75V216H1295.25ZM1296 287.25H1224V288.75H1296V287.25Z" fill="#D0D5DD" mask="url(#path-129-inside-64_406_4087)"/>
<path d="M216 360V360.75H216.75V360H216ZM215.25 288V360H216.75V288H215.25ZM216 359.25H144V360.75H216V359.25Z" fill="#D0D5DD" mask="url(#path-131-inside-65_406_4087)"/>
<path d="M288 360V360.75H288.75V360H288ZM287.25 288V360H288.75V288H287.25ZM288 359.25H216V360.75H288V359.25Z" fill="#D0D5DD" mask="url(#path-133-inside-66_406_4087)"/>
<path d="M360 360V360.75H360.75V360H360ZM359.25 288V360H360.75V288H359.25ZM360 359.25H288V360.75H360V359.25Z" fill="#D0D5DD" mask="url(#path-135-inside-67_406_4087)"/>
<path d="M432 360V360.75H432.75V360H432ZM431.25 288V360H432.75V288H431.25ZM432 359.25H360V360.75H432V359.25Z" fill="#D0D5DD" mask="url(#path-137-inside-68_406_4087)"/>
<path d="M504 360V360.75H504.75V360H504ZM503.25 288V360H504.75V288H503.25ZM504 359.25H432V360.75H504V359.25Z" fill="#D0D5DD" mask="url(#path-139-inside-69_406_4087)"/>
<path d="M576 360V360.75H576.75V360H576ZM575.25 288V360H576.75V288H575.25ZM576 359.25H504V360.75H576V359.25Z" fill="#D0D5DD" mask="url(#path-141-inside-70_406_4087)"/>
<mask id="path-143-inside-71_406_4087" fill="white">
<path d="M576 288H648V360H576V288Z"/>
</mask>
<path d="M576 288H648V360H576V288Z" fill="#F2F4F7"/>
<path d="M648 360V360.75H648.75V360H648ZM647.25 288V360H648.75V288H647.25ZM648 359.25H576V360.75H648V359.25Z" fill="#D0D5DD" mask="url(#path-143-inside-71_406_4087)"/>
<path d="M720 360V360.75H720.75V360H720ZM719.25 288V360H720.75V288H719.25ZM720 359.25H648V360.75H720V359.25Z" fill="#D0D5DD" mask="url(#path-145-inside-72_406_4087)"/>
<path d="M792 360V360.75H792.75V360H792ZM791.25 288V360H792.75V288H791.25ZM792 359.25H720V360.75H792V359.25Z" fill="#D0D5DD" mask="url(#path-147-inside-73_406_4087)"/>
<path d="M864 360V360.75H864.75V360H864ZM863.25 288V360H864.75V288H863.25ZM864 359.25H792V360.75H864V359.25Z" fill="#D0D5DD" mask="url(#path-149-inside-74_406_4087)"/>
<path d="M936 360V360.75H936.75V360H936ZM935.25 288V360H936.75V288H935.25ZM936 359.25H864V360.75H936V359.25Z" fill="#D0D5DD" mask="url(#path-151-inside-75_406_4087)"/>
<path d="M1008 360V360.75H1008.75V360H1008ZM1007.25 288V360H1008.75V288H1007.25ZM1008 359.25H936V360.75H1008V359.25Z" fill="#D0D5DD" mask="url(#path-153-inside-76_406_4087)"/>
<path d="M1080 360V360.75H1080.75V360H1080ZM1079.25 288V360H1080.75V288H1079.25ZM1080 359.25H1008V360.75H1080V359.25Z" fill="#D0D5DD" mask="url(#path-155-inside-77_406_4087)"/>
<path d="M1152 360V360.75H1152.75V360H1152ZM1151.25 288V360H1152.75V288H1151.25ZM1152 359.25H1080V360.75H1152V359.25Z" fill="#D0D5DD" mask="url(#path-157-inside-78_406_4087)"/>
<path d="M1224 360V360.75H1224.75V360H1224ZM1223.25 288V360H1224.75V288H1223.25ZM1224 359.25H1152V360.75H1224V359.25Z" fill="#D0D5DD" mask="url(#path-159-inside-79_406_4087)"/>
<path d="M1296 360V360.75H1296.75V360H1296ZM1295.25 288V360H1296.75V288H1295.25ZM1296 359.25H1224V360.75H1296V359.25Z" fill="#D0D5DD" mask="url(#path-161-inside-80_406_4087)"/>
<path d="M216 432V432.75H216.75V432H216ZM215.25 360V432H216.75V360H215.25ZM216 431.25H144V432.75H216V431.25Z" fill="#D0D5DD" mask="url(#path-163-inside-81_406_4087)"/>
<path d="M288 432V432.75H288.75V432H288ZM287.25 360V432H288.75V360H287.25ZM288 431.25H216V432.75H288V431.25Z" fill="#D0D5DD" mask="url(#path-165-inside-82_406_4087)"/>
<path d="M360 432V432.75H360.75V432H360ZM359.25 360V432H360.75V360H359.25ZM360 431.25H288V432.75H360V431.25Z" fill="#D0D5DD" mask="url(#path-167-inside-83_406_4087)"/>
<mask id="path-169-inside-84_406_4087" fill="white">
<path d="M360 360H432V432H360V360Z"/>
</mask>
<path d="M360 360H432V432H360V360Z" fill="#F2F4F7"/>
<path d="M432 432V432.75H432.75V432H432ZM431.25 360V432H432.75V360H431.25ZM432 431.25H360V432.75H432V431.25Z" fill="#D0D5DD" mask="url(#path-169-inside-84_406_4087)"/>
<path d="M504 432V432.75H504.75V432H504ZM503.25 360V432H504.75V360H503.25ZM504 431.25H432V432.75H504V431.25Z" fill="#D0D5DD" mask="url(#path-171-inside-85_406_4087)"/>
<path d="M576 432V432.75H576.75V432H576ZM575.25 360V432H576.75V360H575.25ZM576 431.25H504V432.75H576V431.25Z" fill="#D0D5DD" mask="url(#path-173-inside-86_406_4087)"/>
<path d="M648 432V432.75H648.75V432H648ZM647.25 360V432H648.75V360H647.25ZM648 431.25H576V432.75H648V431.25Z" fill="#D0D5DD" mask="url(#path-175-inside-87_406_4087)"/>
<path d="M720 432V432.75H720.75V432H720ZM719.25 360V432H720.75V360H719.25ZM720 431.25H648V432.75H720V431.25Z" fill="#D0D5DD" mask="url(#path-177-inside-88_406_4087)"/>
<path d="M792 432V432.75H792.75V432H792ZM791.25 360V432H792.75V360H791.25ZM792 431.25H720V432.75H792V431.25Z" fill="#D0D5DD" mask="url(#path-179-inside-89_406_4087)"/>
<mask id="path-181-inside-90_406_4087" fill="white">
<path d="M792 360H864V432H792V360Z"/>
</mask>
<path d="M792 360H864V432H792V360Z" fill="#ECFDF5"/>
<path d="M864 432V432.75H864.75V432H864ZM863.25 360V432H864.75V360H863.25ZM864 431.25H792V432.75H864V431.25Z" fill="#D0D5DD" mask="url(#path-181-inside-90_406_4087)"/>
<path d="M936 432V432.75H936.75V432H936ZM935.25 360V432H936.75V360H935.25ZM936 431.25H864V432.75H936V431.25Z" fill="#D0D5DD" mask="url(#path-183-inside-91_406_4087)"/>
<path d="M1008 432V432.75H1008.75V432H1008ZM1007.25 360V432H1008.75V360H1007.25ZM1008 431.25H936V432.75H1008V431.25Z" fill="#D0D5DD" mask="url(#path-185-inside-92_406_4087)"/>
<path d="M1080 432V432.75H1080.75V432H1080ZM1079.25 360V432H1080.75V360H1079.25ZM1080 431.25H1008V432.75H1080V431.25Z" fill="#D0D5DD" mask="url(#path-187-inside-93_406_4087)"/>
<path d="M1152 432V432.75H1152.75V432H1152ZM1151.25 360V432H1152.75V360H1151.25ZM1152 431.25H1080V432.75H1152V431.25Z" fill="#D0D5DD" mask="url(#path-189-inside-94_406_4087)"/>
<path d="M1224 432V432.75H1224.75V432H1224ZM1223.25 360V432H1224.75V360H1223.25ZM1224 431.25H1152V432.75H1224V431.25Z" fill="#D0D5DD" mask="url(#path-191-inside-95_406_4087)"/>
<path d="M1296 432V432.75H1296.75V432H1296ZM1295.25 360V432H1296.75V360H1295.25ZM1296 431.25H1224V432.75H1296V431.25Z" fill="#D0D5DD" mask="url(#path-193-inside-96_406_4087)"/>
<path d="M216 504V504.75H216.75V504H216ZM215.25 432V504H216.75V432H215.25ZM216 503.25H144V504.75H216V503.25Z" fill="#D0D5DD" mask="url(#path-195-inside-97_406_4087)"/>
<mask id="path-197-inside-98_406_4087" fill="white">
<path d="M216 432H288V504H216V432Z"/>
</mask>
<path d="M216 432H288V504H216V432Z" fill="#F2F4F7"/>
<path d="M288 504V504.75H288.75V504H288ZM287.25 432V504H288.75V432H287.25ZM288 503.25H216V504.75H288V503.25Z" fill="#D0D5DD" mask="url(#path-197-inside-98_406_4087)"/>
<path d="M360 504V504.75H360.75V504H360ZM359.25 432V504H360.75V432H359.25ZM360 503.25H288V504.75H360V503.25Z" fill="#D0D5DD" mask="url(#path-199-inside-99_406_4087)"/>
<path d="M432 504V504.75H432.75V504H432ZM431.25 432V504H432.75V432H431.25ZM432 503.25H360V504.75H432V503.25Z" fill="#D0D5DD" mask="url(#path-201-inside-100_406_4087)"/>
<path d="M504 504V504.75H504.75V504H504ZM503.25 432V504H504.75V432H503.25ZM504 503.25H432V504.75H504V503.25Z" fill="#D0D5DD" mask="url(#path-203-inside-101_406_4087)"/>
<path d="M576 504V504.75H576.75V504H576ZM575.25 432V504H576.75V432H575.25ZM576 503.25H504V504.75H576V503.25Z" fill="#D0D5DD" mask="url(#path-205-inside-102_406_4087)"/>
<path d="M648 504V504.75H648.75V504H648ZM647.25 432V504H648.75V432H647.25ZM648 503.25H576V504.75H648V503.25Z" fill="#D0D5DD" mask="url(#path-207-inside-103_406_4087)"/>
<path d="M720 504V504.75H720.75V504H720ZM719.25 432V504H720.75V432H719.25ZM720 503.25H648V504.75H720V503.25Z" fill="#D0D5DD" mask="url(#path-209-inside-104_406_4087)"/>
<path d="M792 504V504.75H792.75V504H792ZM791.25 432V504H792.75V432H791.25ZM792 503.25H720V504.75H792V503.25Z" fill="#D0D5DD" mask="url(#path-211-inside-105_406_4087)"/>
<path d="M864 504V504.75H864.75V504H864ZM863.25 432V504H864.75V432H863.25ZM864 503.25H792V504.75H864V503.25Z" fill="#D0D5DD" mask="url(#path-213-inside-106_406_4087)"/>
<path d="M936 504V504.75H936.75V504H936ZM935.25 432V504H936.75V432H935.25ZM936 503.25H864V504.75H936V503.25Z" fill="#D0D5DD" mask="url(#path-215-inside-107_406_4087)"/>
<path d="M1008 504V504.75H1008.75V504H1008ZM1007.25 432V504H1008.75V432H1007.25ZM1008 503.25H936V504.75H1008V503.25Z" fill="#D0D5DD" mask="url(#path-217-inside-108_406_4087)"/>
<path d="M1080 504V504.75H1080.75V504H1080ZM1079.25 432V504H1080.75V432H1079.25ZM1080 503.25H1008V504.75H1080V503.25Z" fill="#D0D5DD" mask="url(#path-219-inside-109_406_4087)"/>
<path d="M1152 504V504.75H1152.75V504H1152ZM1151.25 432V504H1152.75V432H1151.25ZM1152 503.25H1080V504.75H1152V503.25Z" fill="#D0D5DD" mask="url(#path-221-inside-110_406_4087)"/>
<mask id="path-223-inside-111_406_4087" fill="white">
<path d="M1152 432H1224V504H1152V432Z"/>
</mask>
<path d="M1152 432H1224V504H1152V432Z" fill="#F2F4F7"/>
<path d="M1224 504V504.75H1224.75V504H1224ZM1223.25 432V504H1224.75V432H1223.25ZM1224 503.25H1152V504.75H1224V503.25Z" fill="#D0D5DD" mask="url(#path-223-inside-111_406_4087)"/>
<path d="M1296 504V504.75H1296.75V504H1296ZM1295.25 432V504H1296.75V432H1295.25ZM1296 503.25H1224V504.75H1296V503.25Z" fill="#D0D5DD" mask="url(#path-225-inside-112_406_4087)"/>
<path d="M216 576V576.75H216.75V576H216ZM215.25 504V576H216.75V504H215.25ZM216 575.25H144V576.75H216V575.25Z" fill="#D0D5DD" mask="url(#path-227-inside-113_406_4087)"/>
<path d="M288 576V576.75H288.75V576H288ZM287.25 504V576H288.75V504H287.25ZM288 575.25H216V576.75H288V575.25Z" fill="#D0D5DD" mask="url(#path-229-inside-114_406_4087)"/>
<path d="M360 576V576.75H360.75V576H360ZM359.25 504V576H360.75V504H359.25ZM360 575.25H288V576.75H360V575.25Z" fill="#D0D5DD" mask="url(#path-231-inside-115_406_4087)"/>
<path d="M432 576V576.75H432.75V576H432ZM431.25 504V576H432.75V504H431.25ZM432 575.25H360V576.75H432V575.25Z" fill="#D0D5DD" mask="url(#path-233-inside-116_406_4087)"/>
<path d="M504 576V576.75H504.75V576H504ZM503.25 504V576H504.75V504H503.25ZM504 575.25H432V576.75H504V575.25Z" fill="#D0D5DD" mask="url(#path-235-inside-117_406_4087)"/>
<path d="M576 576V576.75H576.75V576H576ZM575.25 504V576H576.75V504H575.25ZM576 575.25H504V576.75H576V575.25Z" fill="#D0D5DD" mask="url(#path-237-inside-118_406_4087)"/>
<mask id="path-239-inside-119_406_4087" fill="white">
<path d="M576 504H648V576H576V504Z"/>
</mask>
<path d="M576 504H648V576H576V504Z" fill="#F2F4F7"/>
<path d="M648 576V576.75H648.75V576H648ZM647.25 504V576H648.75V504H647.25ZM648 575.25H576V576.75H648V575.25Z" fill="#D0D5DD" mask="url(#path-239-inside-119_406_4087)"/>
<path d="M720 576V576.75H720.75V576H720ZM719.25 504V576H720.75V504H719.25ZM720 575.25H648V576.75H720V575.25Z" fill="#D0D5DD" mask="url(#path-241-inside-120_406_4087)"/>
<path d="M792 576V576.75H792.75V576H792ZM791.25 504V576H792.75V504H791.25ZM792 575.25H720V576.75H792V575.25Z" fill="#D0D5DD" mask="url(#path-243-inside-121_406_4087)"/>
<path d="M864 576V576.75H864.75V576H864ZM863.25 504V576H864.75V504H863.25ZM864 575.25H792V576.75H864V575.25Z" fill="#D0D5DD" mask="url(#path-245-inside-122_406_4087)"/>
<path d="M936 576V576.75H936.75V576H936ZM935.25 504V576H936.75V504H935.25ZM936 575.25H864V576.75H936V575.25Z" fill="#D0D5DD" mask="url(#path-247-inside-123_406_4087)"/>
<path d="M1008 576V576.75H1008.75V576H1008ZM1007.25 504V576H1008.75V504H1007.25ZM1008 575.25H936V576.75H1008V575.25Z" fill="#D0D5DD" mask="url(#path-249-inside-124_406_4087)"/>
<mask id="path-251-inside-125_406_4087" fill="white">
<path d="M1008 504H1080V576H1008V504Z"/>
</mask>
<path d="M1008 504H1080V576H1008V504Z" fill="#F2F4F7"/>
<path d="M1080 576V576.75H1080.75V576H1080ZM1079.25 504V576H1080.75V504H1079.25ZM1080 575.25H1008V576.75H1080V575.25Z" fill="#D0D5DD" mask="url(#path-251-inside-125_406_4087)"/>
<path d="M1152 576V576.75H1152.75V576H1152ZM1151.25 504V576H1152.75V504H1151.25ZM1152 575.25H1080V576.75H1152V575.25Z" fill="#D0D5DD" mask="url(#path-253-inside-126_406_4087)"/>
<path d="M1224 576V576.75H1224.75V576H1224ZM1223.25 504V576H1224.75V504H1223.25ZM1224 575.25H1152V576.75H1224V575.25Z" fill="#D0D5DD" mask="url(#path-255-inside-127_406_4087)"/>
<path d="M1296 576V576.75H1296.75V576H1296ZM1295.25 504V576H1296.75V504H1295.25ZM1296 575.25H1224V576.75H1296V575.25Z" fill="#D0D5DD" mask="url(#path-257-inside-128_406_4087)"/>
<path d="M216 648V648.75H216.75V648H216ZM215.25 576V648H216.75V576H215.25ZM216 647.25H144V648.75H216V647.25Z" fill="#D0D5DD" mask="url(#path-259-inside-129_406_4087)"/>
<path d="M288 648V648.75H288.75V648H288ZM287.25 576V648H288.75V576H287.25ZM288 647.25H216V648.75H288V647.25Z" fill="#D0D5DD" mask="url(#path-261-inside-130_406_4087)"/>
<path d="M360 648V648.75H360.75V648H360ZM359.25 576V648H360.75V576H359.25ZM360 647.25H288V648.75H360V647.25Z" fill="#D0D5DD" mask="url(#path-263-inside-131_406_4087)"/>
<mask id="path-265-inside-132_406_4087" fill="white">
<path d="M360 576H432V648H360V576Z"/>
</mask>
<path d="M360 576H432V648H360V576Z" fill="#F2F4F7"/>
<path d="M432 648V648.75H432.75V648H432ZM431.25 576V648H432.75V576H431.25ZM432 647.25H360V648.75H432V647.25Z" fill="#D0D5DD" mask="url(#path-265-inside-132_406_4087)"/>
<path d="M504 648V648.75H504.75V648H504ZM503.25 576V648H504.75V576H503.25ZM504 647.25H432V648.75H504V647.25Z" fill="#D0D5DD" mask="url(#path-267-inside-133_406_4087)"/>
<path d="M576 648V648.75H576.75V648H576ZM575.25 576V648H576.75V576H575.25ZM576 647.25H504V648.75H576V647.25Z" fill="#D0D5DD" mask="url(#path-269-inside-134_406_4087)"/>
<path d="M648 648V648.75H648.75V648H648ZM647.25 576V648H648.75V576H647.25ZM648 647.25H576V648.75H648V647.25Z" fill="#D0D5DD" mask="url(#path-271-inside-135_406_4087)"/>
<path d="M720 648V648.75H720.75V648H720ZM719.25 576V648H720.75V576H719.25ZM720 647.25H648V648.75H720V647.25Z" fill="#D0D5DD" mask="url(#path-273-inside-136_406_4087)"/>
<path d="M792 648V648.75H792.75V648H792ZM791.25 576V648H792.75V576H791.25ZM792 647.25H720V648.75H792V647.25Z" fill="#D0D5DD" mask="url(#path-275-inside-137_406_4087)"/>
<mask id="path-277-inside-138_406_4087" fill="white">
<path d="M792 576H864V648H792V576Z"/>
</mask>
<path d="M792 576H864V648H792V576Z" fill="#F2F4F7"/>
<path d="M864 648V648.75H864.75V648H864ZM863.25 576V648H864.75V576H863.25ZM864 647.25H792V648.75H864V647.25Z" fill="#D0D5DD" mask="url(#path-277-inside-138_406_4087)"/>
<path d="M936 648V648.75H936.75V648H936ZM935.25 576V648H936.75V576H935.25ZM936 647.25H864V648.75H936V647.25Z" fill="#D0D5DD" mask="url(#path-279-inside-139_406_4087)"/>
<path d="M1008 648V648.75H1008.75V648H1008ZM1007.25 576V648H1008.75V576H1007.25ZM1008 647.25H936V648.75H1008V647.25Z" fill="#D0D5DD" mask="url(#path-281-inside-140_406_4087)"/>
<path d="M1080 648V648.75H1080.75V648H1080ZM1079.25 576V648H1080.75V576H1079.25ZM1080 647.25H1008V648.75H1080V647.25Z" fill="#D0D5DD" mask="url(#path-283-inside-141_406_4087)"/>
<path d="M1152 648V648.75H1152.75V648H1152ZM1151.25 576V648H1152.75V576H1151.25ZM1152 647.25H1080V648.75H1152V647.25Z" fill="#D0D5DD" mask="url(#path-285-inside-142_406_4087)"/>
<path d="M1224 648V648.75H1224.75V648H1224ZM1223.25 576V648H1224.75V576H1223.25ZM1224 647.25H1152V648.75H1224V647.25Z" fill="#D0D5DD" mask="url(#path-287-inside-143_406_4087)"/>
<path d="M1296 648V648.75H1296.75V648H1296ZM1295.25 576V648H1296.75V576H1295.25ZM1296 647.25H1224V648.75H1296V647.25Z" fill="#D0D5DD" mask="url(#path-289-inside-144_406_4087)"/>
<path d="M216 720V720.75H216.75V720H216ZM215.25 648V720H216.75V648H215.25ZM216 719.25H144V720.75H216V719.25Z" fill="#D0D5DD" mask="url(#path-291-inside-145_406_4087)"/>
<path d="M288 720V720.75H288.75V720H288ZM287.25 648V720H288.75V648H287.25ZM288 719.25H216V720.75H288V719.25Z" fill="#D0D5DD" mask="url(#path-293-inside-146_406_4087)"/>
<path d="M360 720V720.75H360.75V720H360ZM359.25 648V720H360.75V648H359.25ZM360 719.25H288V720.75H360V719.25Z" fill="#D0D5DD" mask="url(#path-295-inside-147_406_4087)"/>
<path d="M432 720V720.75H432.75V720H432ZM431.25 648V720H432.75V648H431.25ZM432 719.25H360V720.75H432V719.25Z" fill="#D0D5DD" mask="url(#path-297-inside-148_406_4087)"/>
<path d="M504 720V720.75H504.75V720H504ZM503.25 648V720H504.75V648H503.25ZM504 719.25H432V720.75H504V719.25Z" fill="#D0D5DD" mask="url(#path-299-inside-149_406_4087)"/>
<path d="M576 720V720.75H576.75V720H576ZM575.25 648V720H576.75V648H575.25ZM576 719.25H504V720.75H576V719.25Z" fill="#D0D5DD" mask="url(#path-301-inside-150_406_4087)"/>
<path d="M648 720V720.75H648.75V720H648ZM647.25 648V720H648.75V648H647.25ZM648 719.25H576V720.75H648V719.25Z" fill="#D0D5DD" mask="url(#path-303-inside-151_406_4087)"/>
<path d="M720 720V720.75H720.75V720H720ZM719.25 648V720H720.75V648H719.25ZM720 719.25H648V720.75H720V719.25Z" fill="#D0D5DD" mask="url(#path-305-inside-152_406_4087)"/>
<path d="M792 720V720.75H792.75V720H792ZM791.25 648V720H792.75V648H791.25ZM792 719.25H720V720.75H792V719.25Z" fill="#D0D5DD" mask="url(#path-307-inside-153_406_4087)"/>
<path d="M864 720V720.75H864.75V720H864ZM863.25 648V720H864.75V648H863.25ZM864 719.25H792V720.75H864V719.25Z" fill="#D0D5DD" mask="url(#path-309-inside-154_406_4087)"/>
<path d="M936 720V720.75H936.75V720H936ZM935.25 648V720H936.75V648H935.25ZM936 719.25H864V720.75H936V719.25Z" fill="#D0D5DD" mask="url(#path-311-inside-155_406_4087)"/>
<path d="M1008 720V720.75H1008.75V720H1008ZM1007.25 648V720H1008.75V648H1007.25ZM1008 719.25H936V720.75H1008V719.25Z" fill="#D0D5DD" mask="url(#path-313-inside-156_406_4087)"/>
<path d="M1080 720V720.75H1080.75V720H1080ZM1079.25 648V720H1080.75V648H1079.25ZM1080 719.25H1008V720.75H1080V719.25Z" fill="#D0D5DD" mask="url(#path-315-inside-157_406_4087)"/>
<path d="M1152 720V720.75H1152.75V720H1152ZM1151.25 648V720H1152.75V648H1151.25ZM1152 719.25H1080V720.75H1152V719.25Z" fill="#D0D5DD" mask="url(#path-317-inside-158_406_4087)"/>
<path d="M1224 720V720.75H1224.75V720H1224ZM1223.25 648V720H1224.75V648H1223.25ZM1224 719.25H1152V720.75H1224V719.25Z" fill="#D0D5DD" mask="url(#path-319-inside-159_406_4087)"/>
<mask id="path-321-inside-160_406_4087" fill="white">
<path d="M1224 648H1296V720H1224V648Z"/>
</mask>
<path d="M1224 648H1296V720H1224V648Z" fill="#F2F4F7"/>
<path d="M1296 720V720.75H1296.75V720H1296ZM1295.25 648V720H1296.75V648H1295.25ZM1296 719.25H1224V720.75H1296V719.25Z" fill="#D0D5DD" mask="url(#path-321-inside-160_406_4087)"/>
<path d="M216 792V792.75H216.75V792H216ZM215.25 720V792H216.75V720H215.25ZM216 791.25H144V792.75H216V791.25Z" fill="#D0D5DD" mask="url(#path-323-inside-161_406_4087)"/>
<path d="M288 792V792.75H288.75V792H288ZM287.25 720V792H288.75V720H287.25ZM288 791.25H216V792.75H288V791.25Z" fill="#D0D5DD" mask="url(#path-325-inside-162_406_4087)"/>
<path d="M360 792V792.75H360.75V792H360ZM359.25 720V792H360.75V720H359.25ZM360 791.25H288V792.75H360V791.25Z" fill="#D0D5DD" mask="url(#path-327-inside-163_406_4087)"/>
<path d="M432 792V792.75H432.75V792H432ZM431.25 720V792H432.75V720H431.25ZM432 791.25H360V792.75H432V791.25Z" fill="#D0D5DD" mask="url(#path-329-inside-164_406_4087)"/>
<mask id="path-331-inside-165_406_4087" fill="white">
<path d="M432 720H504V792H432V720Z"/>
</mask>
<path d="M432 720H504V792H432V720Z" fill="#F2F4F7"/>
<path d="M504 792V792.75H504.75V792H504ZM503.25 720V792H504.75V720H503.25ZM504 791.25H432V792.75H504V791.25Z" fill="#D0D5DD" mask="url(#path-331-inside-165_406_4087)"/>
<path d="M576 792V792.75H576.75V792H576ZM575.25 720V792H576.75V720H575.25ZM576 791.25H504V792.75H576V791.25Z" fill="#D0D5DD" mask="url(#path-333-inside-166_406_4087)"/>
<path d="M648 792V792.75H648.75V792H648ZM647.25 720V792H648.75V720H647.25ZM648 791.25H576V792.75H648V791.25Z" fill="#D0D5DD" mask="url(#path-335-inside-167_406_4087)"/>
<path d="M720 792V792.75H720.75V792H720ZM719.25 720V792H720.75V720H719.25ZM720 791.25H648V792.75H720V791.25Z" fill="#D0D5DD" mask="url(#path-337-inside-168_406_4087)"/>
<mask id="path-339-inside-169_406_4087" fill="white">
<path d="M720 720H792V792H720V720Z"/>
</mask>
<path d="M720 720H792V792H720V720Z" fill="#F2F4F7"/>
<path d="M792 792V792.75H792.75V792H792ZM791.25 720V792H792.75V720H791.25ZM792 791.25H720V792.75H792V791.25Z" fill="#D0D5DD" mask="url(#path-339-inside-169_406_4087)"/>
<path d="M864 792V792.75H864.75V792H864ZM863.25 720V792H864.75V720H863.25ZM864 791.25H792V792.75H864V791.25Z" fill="#D0D5DD" mask="url(#path-341-inside-170_406_4087)"/>
<path d="M936 792V792.75H936.75V792H936ZM935.25 720V792H936.75V720H935.25ZM936 791.25H864V792.75H936V791.25Z" fill="#D0D5DD" mask="url(#path-343-inside-171_406_4087)"/>
<path d="M1008 792V792.75H1008.75V792H1008ZM1007.25 720V792H1008.75V720H1007.25ZM1008 791.25H936V792.75H1008V791.25Z" fill="#D0D5DD" mask="url(#path-345-inside-172_406_4087)"/>
<path d="M1080 792V792.75H1080.75V792H1080ZM1079.25 720V792H1080.75V720H1079.25ZM1080 791.25H1008V792.75H1080V791.25Z" fill="#D0D5DD" mask="url(#path-347-inside-173_406_4087)"/>
<path d="M1152 792V792.75H1152.75V792H1152ZM1151.25 720V792H1152.75V720H1151.25ZM1152 791.25H1080V792.75H1152V791.25Z" fill="#D0D5DD" mask="url(#path-349-inside-174_406_4087)"/>
<path d="M1224 792V792.75H1224.75V792H1224ZM1223.25 720V792H1224.75V720H1223.25ZM1224 791.25H1152V792.75H1224V791.25Z" fill="#D0D5DD" mask="url(#path-351-inside-175_406_4087)"/>
<path d="M1296 792V792.75H1296.75V792H1296ZM1295.25 720V792H1296.75V720H1295.25ZM1296 791.25H1224V792.75H1296V791.25Z" fill="#D0D5DD" mask="url(#path-353-inside-176_406_4087)"/>
<mask id="path-355-inside-177_406_4087" fill="white">
<path d="M144 792H216V864H144V792Z"/>
</mask>
<path d="M144 792H216V864H144V792Z" fill="#F2F4F7"/>
<path d="M216 864V864.75H216.75V864H216ZM215.25 792V864H216.75V792H215.25ZM216 863.25H144V864.75H216V863.25Z" fill="#D0D5DD" mask="url(#path-355-inside-177_406_4087)"/>
<path d="M288 864V864.75H288.75V864H288ZM287.25 792V864H288.75V792H287.25ZM288 863.25H216V864.75H288V863.25Z" fill="#D0D5DD" mask="url(#path-357-inside-178_406_4087)"/>
<path d="M360 864V864.75H360.75V864H360ZM359.25 792V864H360.75V792H359.25ZM360 863.25H288V864.75H360V863.25Z" fill="#D0D5DD" mask="url(#path-359-inside-179_406_4087)"/>
<path d="M432 864V864.75H432.75V864H432ZM431.25 792V864H432.75V792H431.25ZM432 863.25H360V864.75H432V863.25Z" fill="#D0D5DD" mask="url(#path-361-inside-180_406_4087)"/>
<path d="M504 864V864.75H504.75V864H504ZM503.25 792V864H504.75V792H503.25ZM504 863.25H432V864.75H504V863.25Z" fill="#D0D5DD" mask="url(#path-363-inside-181_406_4087)"/>
<path d="M576 864V864.75H576.75V864H576ZM575.25 792V864H576.75V792H575.25ZM576 863.25H504V864.75H576V863.25Z" fill="#D0D5DD" mask="url(#path-365-inside-182_406_4087)"/>
<path d="M648 864V864.75H648.75V864H648ZM647.25 792V864H648.75V792H647.25ZM648 863.25H576V864.75H648V863.25Z" fill="#D0D5DD" mask="url(#path-367-inside-183_406_4087)"/>
<path d="M720 864V864.75H720.75V864H720ZM719.25 792V864H720.75V792H719.25ZM720 863.25H648V864.75H720V863.25Z" fill="#D0D5DD" mask="url(#path-369-inside-184_406_4087)"/>
<path d="M792 864V864.75H792.75V864H792ZM791.25 792V864H792.75V792H791.25ZM792 863.25H720V864.75H792V863.25Z" fill="#D0D5DD" mask="url(#path-371-inside-185_406_4087)"/>
<path d="M864 864V864.75H864.75V864H864ZM863.25 792V864H864.75V792H863.25ZM864 863.25H792V864.75H864V863.25Z" fill="#D0D5DD" mask="url(#path-373-inside-186_406_4087)"/>
<path d="M936 864V864.75H936.75V864H936ZM935.25 792V864H936.75V792H935.25ZM936 863.25H864V864.75H936V863.25Z" fill="#D0D5DD" mask="url(#path-375-inside-187_406_4087)"/>
<path d="M1008 864V864.75H1008.75V864H1008ZM1007.25 792V864H1008.75V792H1007.25ZM1008 863.25H936V864.75H1008V863.25Z" fill="#D0D5DD" mask="url(#path-377-inside-188_406_4087)"/>
<mask id="path-379-inside-189_406_4087" fill="white">
<path d="M1008 792H1080V864H1008V792Z"/>
</mask>
<path d="M1008 792H1080V864H1008V792Z" fill="#F2F4F7"/>
<path d="M1080 864V864.75H1080.75V864H1080ZM1079.25 792V864H1080.75V792H1079.25ZM1080 863.25H1008V864.75H1080V863.25Z" fill="#D0D5DD" mask="url(#path-379-inside-189_406_4087)"/>
<path d="M1152 864V864.75H1152.75V864H1152ZM1151.25 792V864H1152.75V792H1151.25ZM1152 863.25H1080V864.75H1152V863.25Z" fill="#D0D5DD" mask="url(#path-381-inside-190_406_4087)"/>
<path d="M1224 864V864.75H1224.75V864H1224ZM1223.25 792V864H1224.75V792H1223.25ZM1224 863.25H1152V864.75H1224V863.25Z" fill="#D0D5DD" mask="url(#path-383-inside-191_406_4087)"/>
<path d="M1296 864V864.75H1296.75V864H1296ZM1295.25 792V864H1296.75V792H1295.25ZM1296 863.25H1224V864.75H1296V863.25Z" fill="#D0D5DD" mask="url(#path-385-inside-192_406_4087)"/>
<path d="M216 936V936.75H216.75V936H216ZM215.25 864V936H216.75V864H215.25ZM216 935.25H144V936.75H216V935.25Z" fill="#D0D5DD" mask="url(#path-387-inside-193_406_4087)"/>
<path d="M288 936V936.75H288.75V936H288ZM287.25 864V936H288.75V864H287.25ZM288 935.25H216V936.75H288V935.25Z" fill="#D0D5DD" mask="url(#path-389-inside-194_406_4087)"/>
<path d="M360 936V936.75H360.75V936H360ZM359.25 864V936H360.75V864H359.25ZM360 935.25H288V936.75H360V935.25Z" fill="#D0D5DD" mask="url(#path-391-inside-195_406_4087)"/>
<path d="M432 936V936.75H432.75V936H432ZM431.25 864V936H432.75V864H431.25ZM432 935.25H360V936.75H432V935.25Z" fill="#D0D5DD" mask="url(#path-393-inside-196_406_4087)"/>
<path d="M504 936V936.75H504.75V936H504ZM503.25 864V936H504.75V864H503.25ZM504 935.25H432V936.75H504V935.25Z" fill="#D0D5DD" mask="url(#path-395-inside-197_406_4087)"/>
<path d="M576 936V936.75H576.75V936H576ZM575.25 864V936H576.75V864H575.25ZM576 935.25H504V936.75H576V935.25Z" fill="#D0D5DD" mask="url(#path-397-inside-198_406_4087)"/>
<mask id="path-399-inside-199_406_4087" fill="white">
<path d="M576 864H648V936H576V864Z"/>
</mask>
<path d="M576 864H648V936H576V864Z" fill="#F2F4F7"/>
<path d="M648 936V936.75H648.75V936H648ZM647.25 864V936H648.75V864H647.25ZM648 935.25H576V936.75H648V935.25Z" fill="#D0D5DD" mask="url(#path-399-inside-199_406_4087)"/>
<path d="M720 936V936.75H720.75V936H720ZM719.25 864V936H720.75V864H719.25ZM720 935.25H648V936.75H720V935.25Z" fill="#D0D5DD" mask="url(#path-401-inside-200_406_4087)"/>
<path d="M792 936V936.75H792.75V936H792ZM791.25 864V936H792.75V864H791.25ZM792 935.25H720V936.75H792V935.25Z" fill="#D0D5DD" mask="url(#path-403-inside-201_406_4087)"/>
<path d="M864 936V936.75H864.75V936H864ZM863.25 864V936H864.75V864H863.25ZM864 935.25H792V936.75H864V935.25Z" fill="#D0D5DD" mask="url(#path-405-inside-202_406_4087)"/>
<path d="M936 936V936.75H936.75V936H936ZM935.25 864V936H936.75V864H935.25ZM936 935.25H864V936.75H936V935.25Z" fill="#D0D5DD" mask="url(#path-407-inside-203_406_4087)"/>
<path d="M1008 936V936.75H1008.75V936H1008ZM1007.25 864V936H1008.75V864H1007.25ZM1008 935.25H936V936.75H1008V935.25Z" fill="#D0D5DD" mask="url(#path-409-inside-204_406_4087)"/>
<path d="M1080 936V936.75H1080.75V936H1080ZM1079.25 864V936H1080.75V864H1079.25ZM1080 935.25H1008V936.75H1080V935.25Z" fill="#D0D5DD" mask="url(#path-411-inside-205_406_4087)"/>
<path d="M1152 936V936.75H1152.75V936H1152ZM1151.25 864V936H1152.75V864H1151.25ZM1152 935.25H1080V936.75H1152V935.25Z" fill="#D0D5DD" mask="url(#path-413-inside-206_406_4087)"/>
<path d="M1224 936V936.75H1224.75V936H1224ZM1223.25 864V936H1224.75V864H1223.25ZM1224 935.25H1152V936.75H1224V935.25Z" fill="#D0D5DD" mask="url(#path-415-inside-207_406_4087)"/>
<path d="M1296 936V936.75H1296.75V936H1296ZM1295.25 864V936H1296.75V864H1295.25ZM1296 935.25H1224V936.75H1296V935.25Z" fill="#D0D5DD" mask="url(#path-417-inside-208_406_4087)"/>
<path d="M216 1008V1008.75H216.75V1008H216ZM215.25 936V1008H216.75V936H215.25ZM216 1007.25H144V1008.75H216V1007.25Z" fill="#D0D5DD" mask="url(#path-419-inside-209_406_4087)"/>
<path d="M288 1008V1008.75H288.75V1008H288ZM287.25 936V1008H288.75V936H287.25ZM288 1007.25H216V1008.75H288V1007.25Z" fill="#D0D5DD" mask="url(#path-421-inside-210_406_4087)"/>
<path d="M360 1008V1008.75H360.75V1008H360ZM359.25 936V1008H360.75V936H359.25ZM360 1007.25H288V1008.75H360V1007.25Z" fill="#D0D5DD" mask="url(#path-423-inside-211_406_4087)"/>
<mask id="path-425-inside-212_406_4087" fill="white">
<path d="M360 936H432V1008H360V936Z"/>
</mask>
<path d="M360 936H432V1008H360V936Z" fill="#F2F4F7"/>
<path d="M432 1008V1008.75H432.75V1008H432ZM431.25 936V1008H432.75V936H431.25ZM432 1007.25H360V1008.75H432V1007.25Z" fill="#D0D5DD" mask="url(#path-425-inside-212_406_4087)"/>
<path d="M504 1008V1008.75H504.75V1008H504ZM503.25 936V1008H504.75V936H503.25ZM504 1007.25H432V1008.75H504V1007.25Z" fill="#D0D5DD" mask="url(#path-427-inside-213_406_4087)"/>
<path d="M576 1008V1008.75H576.75V1008H576ZM575.25 936V1008H576.75V936H575.25ZM576 1007.25H504V1008.75H576V1007.25Z" fill="#D0D5DD" mask="url(#path-429-inside-214_406_4087)"/>
<path d="M648 1008V1008.75H648.75V1008H648ZM647.25 936V1008H648.75V936H647.25ZM648 1007.25H576V1008.75H648V1007.25Z" fill="#D0D5DD" mask="url(#path-431-inside-215_406_4087)"/>
<path d="M720 1008V1008.75H720.75V1008H720ZM719.25 936V1008H720.75V936H719.25ZM720 1007.25H648V1008.75H720V1007.25Z" fill="#D0D5DD" mask="url(#path-433-inside-216_406_4087)"/>
<path d="M792 1008V1008.75H792.75V1008H792ZM791.25 936V1008H792.75V936H791.25ZM792 1007.25H720V1008.75H792V1007.25Z" fill="#D0D5DD" mask="url(#path-435-inside-217_406_4087)"/>
<mask id="path-437-inside-218_406_4087" fill="white">
<path d="M792 936H864V1008H792V936Z"/>
</mask>
<path d="M792 936H864V1008H792V936Z" fill="#F2F4F7"/>
<path d="M864 1008V1008.75H864.75V1008H864ZM863.25 936V1008H864.75V936H863.25ZM864 1007.25H792V1008.75H864V1007.25Z" fill="#D0D5DD" mask="url(#path-437-inside-218_406_4087)"/>
<path d="M936 1008V1008.75H936.75V1008H936ZM935.25 936V1008H936.75V936H935.25ZM936 1007.25H864V1008.75H936V1007.25Z" fill="#D0D5DD" mask="url(#path-439-inside-219_406_4087)"/>
<path d="M1008 1008V1008.75H1008.75V1008H1008ZM1007.25 936V1008H1008.75V936H1007.25ZM1008 1007.25H936V1008.75H1008V1007.25Z" fill="#D0D5DD" mask="url(#path-441-inside-220_406_4087)"/>
<path d="M1080 1008V1008.75H1080.75V1008H1080ZM1079.25 936V1008H1080.75V936H1079.25ZM1080 1007.25H1008V1008.75H1080V1007.25Z" fill="#D0D5DD" mask="url(#path-443-inside-221_406_4087)"/>
<path d="M1152 1008V1008.75H1152.75V1008H1152ZM1151.25 936V1008H1152.75V936H1151.25ZM1152 1007.25H1080V1008.75H1152V1007.25Z" fill="#D0D5DD" mask="url(#path-445-inside-222_406_4087)"/>
<path d="M1224 1008V1008.75H1224.75V1008H1224ZM1223.25 936V1008H1224.75V936H1223.25ZM1224 1007.25H1152V1008.75H1224V1007.25Z" fill="#D0D5DD" mask="url(#path-447-inside-223_406_4087)"/>
<path d="M1296 1008V1008.75H1296.75V1008H1296ZM1295.25 936V1008H1296.75V936H1295.25ZM1296 1007.25H1224V1008.75H1296V1007.25Z" fill="#D0D5DD" mask="url(#path-449-inside-224_406_4087)"/>
<path d="M216 1080V1080.75H216.75V1080H216ZM215.25 1008V1080H216.75V1008H215.25ZM216 1079.25H144V1080.75H216V1079.25Z" fill="#D0D5DD" mask="url(#path-451-inside-225_406_4087)"/>
<mask id="path-453-inside-226_406_4087" fill="white">
<path d="M216 1008H288V1080H216V1008Z"/>
</mask>
<path d="M216 1008H288V1080H216V1008Z" fill="#F2F4F7"/>
<path d="M288 1080V1080.75H288.75V1080H288ZM287.25 1008V1080H288.75V1008H287.25ZM288 1079.25H216V1080.75H288V1079.25Z" fill="#D0D5DD" mask="url(#path-453-inside-226_406_4087)"/>
<path d="M360 1080V1080.75H360.75V1080H360ZM359.25 1008V1080H360.75V1008H359.25ZM360 1079.25H288V1080.75H360V1079.25Z" fill="#D0D5DD" mask="url(#path-455-inside-227_406_4087)"/>
<path d="M432 1080V1080.75H432.75V1080H432ZM431.25 1008V1080H432.75V1008H431.25ZM432 1079.25H360V1080.75H432V1079.25Z" fill="#D0D5DD" mask="url(#path-457-inside-228_406_4087)"/>
<path d="M504 1080V1080.75H504.75V1080H504ZM503.25 1008V1080H504.75V1008H503.25ZM504 1079.25H432V1080.75H504V1079.25Z" fill="#D0D5DD" mask="url(#path-459-inside-229_406_4087)"/>
<path d="M576 1080V1080.75H576.75V1080H576ZM575.25 1008V1080H576.75V1008H575.25ZM576 1079.25H504V1080.75H576V1079.25Z" fill="#D0D5DD" mask="url(#path-461-inside-230_406_4087)"/>
<path d="M648 1080V1080.75H648.75V1080H648ZM647.25 1008V1080H648.75V1008H647.25ZM648 1079.25H576V1080.75H648V1079.25Z" fill="#D0D5DD" mask="url(#path-463-inside-231_406_4087)"/>
<path d="M720 1080V1080.75H720.75V1080H720ZM719.25 1008V1080H720.75V1008H719.25ZM720 1079.25H648V1080.75H720V1079.25Z" fill="#D0D5DD" mask="url(#path-465-inside-232_406_4087)"/>
<path d="M792 1080V1080.75H792.75V1080H792ZM791.25 1008V1080H792.75V1008H791.25ZM792 1079.25H720V1080.75H792V1079.25Z" fill="#D0D5DD" mask="url(#path-467-inside-233_406_4087)"/>
<path d="M864 1080V1080.75H864.75V1080H864ZM863.25 1008V1080H864.75V1008H863.25ZM864 1079.25H792V1080.75H864V1079.25Z" fill="#D0D5DD" mask="url(#path-469-inside-234_406_4087)"/>
<path d="M936 1080V1080.75H936.75V1080H936ZM935.25 1008V1080H936.75V1008H935.25ZM936 1079.25H864V1080.75H936V1079.25Z" fill="#D0D5DD" mask="url(#path-471-inside-235_406_4087)"/>
<path d="M1008 1080V1080.75H1008.75V1080H1008ZM1007.25 1008V1080H1008.75V1008H1007.25ZM1008 1079.25H936V1080.75H1008V1079.25Z" fill="#D0D5DD" mask="url(#path-473-inside-236_406_4087)"/>
<path d="M1080 1080V1080.75H1080.75V1080H1080ZM1079.25 1008V1080H1080.75V1008H1079.25ZM1080 1079.25H1008V1080.75H1080V1079.25Z" fill="#D0D5DD" mask="url(#path-475-inside-237_406_4087)"/>
<path d="M1152 1080V1080.75H1152.75V1080H1152ZM1151.25 1008V1080H1152.75V1008H1151.25ZM1152 1079.25H1080V1080.75H1152V1079.25Z" fill="#D0D5DD" mask="url(#path-477-inside-238_406_4087)"/>
<mask id="path-479-inside-239_406_4087" fill="white">
<path d="M1152 1008H1224V1080H1152V1008Z"/>
</mask>
<path d="M1152 1008H1224V1080H1152V1008Z" fill="#F2F4F7"/>
<path d="M1224 1080V1080.75H1224.75V1080H1224ZM1223.25 1008V1080H1224.75V1008H1223.25ZM1224 1079.25H1152V1080.75H1224V1079.25Z" fill="#D0D5DD" mask="url(#path-479-inside-239_406_4087)"/>
<path d="M1296 1080V1080.75H1296.75V1080H1296ZM1295.25 1008V1080H1296.75V1008H1295.25ZM1296 1079.25H1224V1080.75H1296V1079.25Z" fill="#D0D5DD" mask="url(#path-481-inside-240_406_4087)"/>
</g>
<rect x="0.375" y="0.375" width="1439.25" height="1079.25" stroke="#D0D5DD" stroke-width="0.75"/>
</g>
<defs>
<radialGradient id="paint0_radial_406_4087" cx="0" cy="0" r="1" gradientUnits="userSpaceOnUse" gradientTransform="translate(540 -0.000128746) rotate(90) scale(1080 563.691)">
<stop/>
<stop offset="0.953125" stop-opacity="0"/>
</radialGradient>
<clipPath id="clip0_406_4087">
<rect width="1440" height="1080" fill="white"/>
</clipPath>
</defs>
</svg>
