<svg width="27" height="31" viewBox="0 0 27 31" fill="none" xmlns="http://www.w3.org/2000/svg">
<path d="M22.8063 23.3109L22.4669 23.1691L22.42 23.048C22.2115 22.9524 22.0063 22.8557 21.8058 22.757C21.6364 22.6728 21.4739 22.5736 21.3012 22.4995C21.1284 22.4254 20.9264 22.3133 20.7263 22.2392C20.5262 22.1651 20.3278 22.152 20.1862 22.0218C20.0164 21.8707 19.782 21.8963 19.5982 21.7842C19.4238 21.6888 19.2443 21.6025 19.0603 21.5254L19.0306 21.5899C18.458 21.4062 17.8886 21.2073 17.2356 21.1924L17.1411 21.0897L17.0775 21.1937C16.728 21.1528 16.3728 21.1441 16.0284 21.0978C15.6039 21.0419 15.1662 21.0793 14.749 20.9625C14.5285 20.9077 14.2974 20.9004 14.0716 20.9411C13.9357 20.9621 13.9307 20.8741 13.8604 20.829L13.7546 20.9653L12.9021 20.8778L12.9712 20.7082C12.8569 20.6343 12.7959 20.4676 12.5148 20.5324L12.7908 20.3038L12.477 20.1856L12.366 20.3274L12.1009 20.2926C12.0878 20.2644 12.082 20.2333 12.0841 20.2021C12.1695 20.1073 12.2626 20.0183 12.3496 19.9229C12.311 19.7104 12.1216 19.805 11.997 19.7563L12.0405 19.6618L11.8987 19.5405L12.1514 19.1763C12.5399 19.0134 12.9187 18.8284 13.2857 18.622C13.4769 18.5038 13.72 18.4536 13.8595 18.3008C14.0354 18.1198 14.289 18.1343 14.4464 17.9852C14.6037 17.836 14.8589 17.7935 15.0249 17.6622C15.191 17.5308 15.4392 17.4751 15.6069 17.3431C16.0045 17.0285 16.5021 16.8586 16.8536 16.4861C17.065 16.4623 17.1954 16.2249 17.4305 16.2625C17.5932 16.0802 17.7882 15.9281 18.0059 15.8137C18.2986 15.628 18.5263 15.3546 18.8595 15.2219C18.9695 15.1472 19.0672 15.0563 19.149 14.9527L17.842 15.0803L17.572 14.9293L17.2882 15.138C16.8418 15.1435 16.3681 15.3183 15.9027 15.1337C15.8306 15.338 15.6 15.2934 15.474 15.3916C14.9248 15.3435 14.4255 15.5088 13.8483 15.5862L13.7075 15.5191C13.4937 15.5226 13.3334 15.6923 13.098 15.6495C12.9076 15.6308 12.7147 15.6711 12.5464 15.7646C12.3589 15.8564 12.1494 15.8941 11.9431 15.8732C11.7176 15.8513 11.5698 15.9827 11.359 16.0079L11.1506 15.9124C10.7375 16.1166 10.2717 16.2037 9.81064 16.3454L9.6044 16.2225L9.16057 16.3946L9.23429 16.1897C9.14205 16.2328 9.03952 16.2489 8.9393 16.2361C8.83907 16.2232 8.74555 16.182 8.67025 16.1174L8.69403 15.9671L7.80055 15.5763L7.77205 15.2347L7.89432 15.108L7.85628 15.0099L7.6637 15.0211C7.54901 14.7816 7.63601 14.5592 7.75055 14.342C7.93878 14.2303 7.9388 14.2303 7.98182 13.9368L7.83657 14.1077L7.74446 13.9829L8.00481 13.8362L7.89743 13.7755L8.13488 12.9252L8.32667 12.8509L8.18008 12.7737L8.31839 12.6602L8.25005 12.4839L8.33626 12.2971C8.4589 12.3359 8.61858 12.2916 8.69959 12.4348C8.76559 12.1958 8.55658 12.1834 8.38541 12.0946L8.60019 11.9902C8.64142 11.7767 8.72645 11.5727 8.64287 11.3336C8.56622 11.1358 8.73642 10.9588 8.90841 10.8004L8.76796 10.7156L8.98372 10.5808L8.91181 10.4517C8.98025 10.2804 9.02556 10.1016 9.0466 9.91984C9.05 9.64169 9.29015 9.45691 9.28741 9.17232C9.29701 8.91425 9.35724 8.65928 9.46482 8.42119C9.58537 8.06426 9.68191 7.70051 9.75381 7.3323L9.51763 7.42384L9.49977 7.63176L9.26877 7.59082C9.17445 7.69429 9.08707 7.80356 9.00721 7.91791C8.94558 8.01762 8.79321 8.0855 8.85322 8.24033C8.67867 8.26038 8.63031 8.41315 8.57086 8.54199L8.48151 8.5043C8.24509 8.95843 7.92519 9.36764 7.5381 9.71107L7.33993 10.1688L7.19727 10.2241L6.79818 10.8125L6.58047 10.6413L6.30761 10.9674L6.49678 11.2344L5.9033 12.0552C5.89204 11.9345 5.91925 11.8125 5.98121 11.7058C5.77081 11.671 5.80168 11.8635 5.72777 11.9504L5.50589 11.8953L5.53241 12.1425L5.44205 12.107L5.60767 12.2332L5.36139 12.4962L5.21854 12.4475L5.15353 12.5715L5.35381 12.8906L4.56695 13.8568L4.51899 13.8366L4.57093 13.6507L4.00545 13.9933L3.64373 13.5305L3.43828 13.4708C3.7346 13.0376 3.99542 12.5827 4.21824 12.1105C4.54839 11.4853 4.98789 10.9306 5.35349 10.3357C5.7191 9.7408 6.20063 9.1345 6.62885 8.53651C6.87218 8.19533 7.1056 7.84742 7.35607 7.51053C7.7076 7.03924 8.05239 6.55998 8.43601 6.11505C8.60444 5.91929 8.69224 5.67543 8.90703 5.50048C9.09111 5.34978 9.19832 5.10899 9.33644 4.90557C9.70884 4.39658 10.0518 3.86799 10.3637 3.32242C10.5553 2.96073 10.7973 2.62538 11.0479 2.22317L11.5694 2.02103C11.6164 2.14213 11.7192 2.25216 11.633 2.43899L11.9631 2.34983C12.2932 2.62256 12.5153 2.99948 12.5922 3.41789L12.3937 3.70996L12.1687 3.91527L12.414 4.19051C12.3593 4.38805 12.3141 4.58188 12.2414 4.77054C12.1686 4.95919 12.2712 5.14864 11.9877 5.22151L12.1555 5.29224C11.9849 5.44477 12.1523 5.73079 11.8793 5.84015L11.9361 6.06672L11.8273 6.13889C11.8249 6.71114 11.6077 7.24671 11.4271 7.8016C11.4508 7.8347 11.4657 7.87315 11.4705 7.91354C11.441 8.06782 11.4498 8.27421 11.3496 8.35892C11.1911 8.505 11.3052 8.77109 11.0508 8.84854L11.148 9.15115L11.0115 9.26933L11.0739 9.45851L10.8398 9.93184L10.6431 9.74889L10.5543 10.1219L10.7104 10.2377C10.6534 10.294 10.6044 10.3575 10.5648 10.4264C10.5505 10.4926 10.5478 10.5604 10.5568 10.627L10.724 10.7385L10.5402 10.9649L10.302 10.9902L10.368 11.1604C10.3048 11.2107 10.2557 11.2757 10.2254 11.3493C10.1952 11.4228 10.1847 11.5023 10.1952 11.5801C10.2458 11.9131 10.1511 12.2707 10.11 12.6164C10.0805 12.6739 10.0374 12.7239 9.9842 12.7621L10.0581 12.8022C10.008 12.9787 9.94161 13.1508 9.85991 13.3163C9.74343 13.4767 9.61337 13.6274 9.47114 13.7668C9.46875 13.8735 9.56802 13.8615 9.78478 13.7246L9.60069 14.0304L9.34472 14.0098L9.566 14.2467L9.52318 14.3902C9.57435 14.4265 9.63509 14.4481 9.69872 14.4527C9.87141 14.3787 10.0631 14.362 10.2438 14.4054C10.5299 14.2028 10.8726 14.2639 11.1783 14.1824C11.515 14.0866 11.8596 14.0227 12.2074 13.9916C12.5371 13.9822 12.8655 13.9389 13.1874 13.8622C13.5151 13.7669 13.8517 13.7651 14.1798 13.6944C14.5187 13.6276 14.8622 13.59 15.2065 13.5821C15.5368 13.5687 15.8556 13.4786 16.1898 13.4707C16.5332 13.4629 16.876 13.4267 17.2145 13.3627C17.5529 13.295 17.8727 13.3298 18.2018 13.2851C18.5309 13.2404 18.8556 13.208 19.1847 13.1915C19.5138 13.175 19.868 13.1717 20.2096 13.1592C20.5512 13.1467 20.8662 13.1269 21.222 13.1089L21.6012 13.2687L21.5562 13.3831C21.6131 13.5674 21.771 13.5044 21.8744 13.5172L22.1808 14.0068L22.1396 14.1074C22.4259 14.2486 22.344 14.4937 22.2808 14.7068C22.2 14.9258 22.1044 15.1396 21.9946 15.3468C21.5998 15.5651 21.3649 16.0317 20.8429 16.0912L20.8716 16.2687L20.0905 16.7232L20.0976 16.8262C19.8833 16.9834 19.6738 17.1439 19.4632 17.2873C19.3824 17.3535 19.2822 17.3923 19.1779 17.3978C19.084 17.3775 18.9854 17.3854 18.8949 17.4205C18.8044 17.4555 18.7263 17.5162 18.6706 17.5944C18.5769 17.6588 18.488 17.7298 18.4047 17.8068L18.7439 17.6753C18.7456 17.7096 18.7424 17.7441 18.7344 17.7778C18.516 17.8622 18.3171 17.9897 18.1503 18.1523C18.0217 18.2786 17.8491 18.3525 17.6686 18.3584C17.4763 18.3325 17.3607 18.453 17.12 18.467L17.2744 18.5641C17.077 18.817 16.9904 18.9087 16.7517 18.8902C16.5634 18.875 16.4503 18.9876 16.3134 19.0812L16.7582 18.9634L16.0647 19.4086C16.8631 19.4412 17.5367 19.6597 18.2242 19.8058C18.78 19.8984 19.3113 20.0906 19.7913 20.3728C19.885 20.4264 20.0118 20.4195 20.1101 20.4661C20.2805 20.5482 20.4344 20.6631 20.6087 20.7365C20.7831 20.81 20.9574 20.813 21.1128 20.8938C21.5169 21.0898 21.8892 21.3635 22.3129 21.5395C22.3536 21.5846 22.3817 21.6392 22.3945 21.6983C22.476 21.6988 22.5563 21.7144 22.6311 21.7442C22.9468 21.9369 23.2501 22.1478 23.5396 22.3759C23.7633 22.5625 24 22.7265 24.214 22.9398C24.3956 23.1528 24.5611 23.3786 24.7092 23.6153C24.8729 23.8649 24.9383 24.1655 24.8936 24.4626C24.4906 24.326 24.3269 24.7598 24.0129 24.8621L24.4597 24.726L24.4858 24.7934L24.1989 24.9046C24.1117 24.9384 24.0261 24.9716 23.9389 25.0054C23.8518 25.0392 23.7244 25.0586 23.702 25.1889C23.6005 25.0872 23.5518 25.2718 23.4765 25.2375C23.3418 25.1769 23.376 25.4017 23.2409 25.3588C23.1568 25.3426 23.0692 25.3492 22.9875 25.3777C22.8903 25.4089 22.795 25.4458 22.7022 25.4883L22.5554 25.3213L22.5607 25.5325L22.378 25.621L22.0076 25.4648L21.8289 25.5447L21.831 25.7431L21.6727 25.5982L21.5776 25.635L21.5598 25.8429C21.2806 25.8612 21.0106 25.8372 20.7371 25.9502C20.5927 25.9797 20.4447 25.9846 20.2997 25.9646L20.2648 26.0204L19.4711 26.113L19.6197 25.8614C19.4864 25.8897 19.3635 25.9551 19.2661 26.0497C19.2515 26.0466 19.2372 26.0427 19.2233 26.038L19.1339 26.0004L19.1006 26.0838C19.0936 26.0972 19.0859 26.1102 19.0774 26.1228L18.6523 26.15L18.5096 25.7821L18.4403 25.7772L18.3884 26.0054L18.5649 26.1504L17.9953 26.2284L17.9168 26.1106C17.7549 26.3374 17.5487 26.2851 17.3395 26.2251C17.2709 26.207 17.1994 26.2007 17.1281 26.2065C16.9703 26.2183 16.813 26.2405 16.6246 26.2624L16.5424 26.1585L16.221 26.3077C16.2525 26.3185 16.2157 26.2939 16.1782 26.2961C15.8791 26.3098 15.5799 26.3517 15.2847 26.3427C15.2555 26.3481 15.2268 26.3557 15.1987 26.3654C15.0077 26.3901 14.8463 26.2041 14.6467 26.3008C14.472 26.3862 14.3059 26.2918 14.1338 26.3039C13.9616 26.316 13.7716 26.3103 13.5792 26.3125C13.5229 26.3045 13.4659 26.3006 13.4088 26.301C13.3405 26.3203 13.2742 26.346 13.2107 26.3778L13.016 26.2611L12.7227 26.3747C12.4816 26.2654 12.2393 26.153 11.9586 26.2848C11.9327 26.2993 11.9023 26.3035 11.8738 26.2965C11.5235 26.1219 11.1352 26.2724 10.7667 26.1966C10.3981 26.1208 10.0245 26.1634 9.66351 26.1164C9.18029 26.0551 8.70065 25.9606 8.22199 25.8782C8.17619 25.8707 8.13327 25.8522 8.09716 25.8243C7.78554 25.5659 7.4765 25.3049 7.19519 25.0683L7.0847 24.4305L7.31179 24.1414C7.57649 24.1376 7.83088 24.1166 8.08784 24.1351C8.34473 24.1456 8.6 24.1752 8.85142 24.2235C9.39823 24.336 9.95852 24.3234 10.5081 24.396C10.837 24.4449 11.1752 24.3861 11.4839 24.5239C12.0432 24.457 12.5858 24.5446 13.1404 24.5642C13.3802 24.5914 13.6224 24.5995 13.8645 24.5885C14.0908 24.5608 14.32 24.5689 14.5465 24.5605C15.2649 24.5324 15.9696 24.5114 16.6809 24.479C17.0513 24.4624 17.4211 24.4366 17.7904 24.4016C18.1623 24.3686 18.5362 24.2889 18.9047 24.2801C19.5458 24.2502 20.1543 24.0514 20.7887 23.9995C21.127 23.9466 21.4584 23.8537 21.7754 23.7228C22.094 23.5993 22.4037 23.4669 22.8063 23.3109Z" fill="#000"/>
</svg>
